# xmcd
#
# Track frame offsets: 
#        150
#        24183
#        38370
#        58215
#        68078
#        89605
#        94170
#        114690
#        125750
#        144340
#        169260
#        186243
#        199960
#
# Disc length: 2840 seconds
#
# Revision: 5
# Processed by: cddbd v1.5.2PL0 Copyright (c) Steve Scherf et al.
# Submitted via: ExactAudioCopy v1.1
#
DISCID=b90b160d
DTITLE=日向敏文 - 東京ラブストーリー
DYEAR=1991
DGENRE=Soundtrack
TTITLE0=Coco and Jasmin
TTITLE1=Good Evening, Heartache
TTITLE2=So Far Away
TTITLE3=Crazy For You
TTITLE4=Tenderly～Rica's Theme
TTITLE5=Promise
TTITLE6=Passion Flower
TTITLE7=Autumn
TTITLE8=If You Know
TTITLE9=Zelda
TTITLE10=Over the Stars
TTITLE11=Alone in the Street
TTITLE12=End Title
EXTD=YEAR: 1991
EXTT0=
EXTT1=
EXTT2=
EXTT3=
EXTT4=
EXTT5=
EXTT6=
EXTT7=
EXTT8=
EXTT9=
EXTT10=
EXTT11=
EXTT12=
PLAYORDER=
